<svg t="1702051313867" class="icon" viewBox="0 0 1024 1024" version="1.1" xmlns="http://www.w3.org/2000/svg" p-id="4325" width="200" height="200"><path d="M523.891613 27.681032c273.639226 0 495.483871 221.844645 495.483871 495.483871 0 273.639226-221.844645 495.483871-495.483871 495.483871-273.672258 0-495.483871-221.844645-495.483871-495.483871 0-273.639226 221.811613-495.483871 495.483871-495.483871" fill="#F3F3F3" p-id="4326"></path><path d="M821.512258 787.257806a33.032258 33.032258 0 0 1-22.891355-9.216c-70.854194-67.980387-109.898323-158.521806-109.898322-254.876903s39.044129-186.863484 109.898322-254.843871a33.032258 33.032258 0 1 1 45.749678 47.665549c-57.773419 55.428129-89.583484 128.990968-89.583484 207.178322 0 78.220387 31.810065 151.783226 89.583484 207.211355a33.032258 33.032258 0 0 1-22.858323 56.881548M226.865548 787.720258a33.032258 33.032258 0 0 1-23.056516-56.716387c57.079742-55.560258 88.493419-129.387355 88.49342-207.838968 0-78.484645-31.413677-152.27871-88.49342-207.872a33.032258 33.032258 0 0 1 46.113033-47.335226c69.92929 68.112516 108.444903 158.753032 108.444903 255.207226 0 96.421161-38.515613 187.061677-108.444903 255.174194a32.966194 32.966194 0 0 1-23.056517 9.381161" fill="#E4715D" p-id="4327"></path></svg>